# xmcd
#
# Track frame offsets: 
#        150
#        50274
#        70301
#        97336
#        111727
#        131078
#        146780
#        176008
#        191162
#
# Disc length: 2789 seconds
#
# Revision: 0
# Processed by: cddbd v1.5.2PL0 Copyright (c) Steve Scherf et al.
# Submitted via: ExactAudioCopy v0.99pb4
#
DISCID=960ae309
DTITLE=David Porter - Into A Real Thing
DYEAR=1973
DGENRE=Soul
TTITLE0=Hang On Sloopy
TTITLE1=Ooo-Wee Girl
TTITLE2=Too Real To Live A Lie
TTITLE3=Grocery Man
TTITLE4=I Don't Wanna Cry
TTITLE5=Thirty Days
TTITLE6=Come Get From Me (Parts 1 and 2)
TTITLE7=Gotta Get Over The Hump
TTITLE8=Somebody's Trying To Ride Piggy Back
EXTD=
EXTT0=
EXTT1=
EXTT2=
EXTT3=
EXTT4=
EXTT5=
EXTT6=
EXTT7=
EXTT8=
PLAYORDER=
